<?xml version="1.0" standalone="no"?>
<!DOCTYPE svg PUBLIC "-//W3C//DTD SVG 20010904//EN"
 "http://www.w3.org/TR/2001/REC-SVG-20010904/DTD/svg10.dtd">
<svg version="1.0" xmlns="http://www.w3.org/2000/svg"
 width="2048.000000pt" height="891.000000pt" viewBox="0 0 2048.000000 891.000000"
 preserveAspectRatio="xMidYMid meet">

<g transform="translate(0.000000,891.000000) scale(0.100000,-0.100000)"
fill="#000000" stroke="none">
<path d="M15185 8899 c-156 -23 -280 -84 -379 -189 -73 -78 -119 -161 -148
-267 -18 -68 -22 -113 -26 -360 l-4 -283 1458 0 c921 0 1492 -4 1549 -10 202
-23 322 -74 430 -184 82 -83 124 -161 157 -292 l23 -89 0 -1655 0 -1655 -22
-87 c-60 -235 -203 -386 -422 -447 -137 -38 -281 -43 -1156 -38 -911 4 -896 3
-1031 66 -116 54 -187 141 -220 272 -30 116 -3 244 81 394 21 38 462 634 980
1325 517 690 944 1261 949 1268 6 9 -274 12 -1386 12 l-1393 -1 -609 -814
c-335 -448 -634 -852 -664 -897 -30 -46 -74 -123 -98 -173 -128 -270 -109
-511 63 -798 57 -94 629 -857 778 -1037 122 -147 310 -334 415 -412 271 -200
541 -281 1035 -308 267 -15 2371 -8 2535 9 520 52 856 138 1188 305 401 201
717 527 922 951 137 283 219 583 267 982 16 133 18 246 18 1083 0 1017 -1
1047 -60 1365 -128 687 -455 1215 -958 1543 -190 124 -450 235 -710 302 -260
67 -506 102 -852 120 -232 12 -2625 11 -2710 -1z"/>
<path d="M555 6673 c-271 -39 -456 -200 -527 -460 -18 -68 -22 -112 -26 -360
l-4 -283 556 0 556 0 0 -2785 0 -2785 1115 0 1115 0 0 2785 0 2785 1173 0
c745 0 1202 -4 1255 -10 180 -23 304 -86 371 -190 102 -158 93 -339 -27 -545
-20 -33 -459 -625 -977 -1315 -517 -690 -944 -1261 -949 -1267 -6 -10 274 -13
1386 -13 l1393 1 611 817 c337 449 635 852 663 894 72 108 137 248 162 348 30
118 24 280 -15 395 -29 86 -85 194 -149 290 -79 117 -625 842 -727 965 -131
158 -309 335 -425 423 -161 121 -378 216 -599 262 -250 51 -103 49 -3111 51
-1534 1 -2803 -1 -2820 -3z"/>
<path d="M9393 4468 c-912 -1217 -1662 -2219 -1667 -2225 -6 -10 274 -13 1383
-13 l1391 0 1665 2220 c916 1221 1665 2222 1665 2225 0 3 -625 5 -1389 5
l-1389 0 -1659 -2212z"/>
</g>
</svg>
